<svg xmlns="http://www.w3.org/2000/svg" viewBox="0 0 557.5 113.2"><path d="M239.7 20.8c1-6.1 4.1-9.9 5.8-11.8 4.2-4.6 10-7 17.7-7 14.1 0 23.7 10.1 23.7 24.1 0 13.9-9.6 24-23.7 24-7.5 0-12.9-2.4-16.8-6.1-2.3-2.3-6.4-7.2-7-15.4h-6.1V49h-9V3h9v17.8h6.4zm37.9 5.3c0-11-7.7-15.9-14.5-15.9s-14.5 4.9-14.5 15.9c0 9.4 5.9 15.9 14.5 15.9 8.6-.1 14.5-6.6 14.5-15.9zm24.9 35.4h-8.4V19.2h8.4V23c3-4.1 7.2-4.8 9.7-4.8 8.8 0 14.7 6.8 14.7 15.9 0 9.1-6.1 15.9-14.9 15.9-1.9 0-6.3-.3-9.5-4.8v16.3zm-.8-27.4c0 4.8 3.4 8.5 8.3 8.5 4.8 0 8.3-3.7 8.3-8.5s-3.4-8.4-8.3-8.4c-4.9-.1-8.3 3.6-8.3 8.4zm40.8-14.9v18.4l13.8-18.4h8.4V49h-8.4V30.6L342.5 49h-8.4V19.2h8.4zm58.1 0v22.7h4.4V56h-7.6v-7h-19.7v7h-7.6V41.9c2.6-.1 4.4-2 5.3-3.8.8-1.8 1.2-4.1 1.2-7.7V19.2h24zm-8.4 7.1h-7.9V33c0 3.9-.8 6.8-3.3 8.9h11.3V26.3zm27.2-7.1v18.4l13.8-18.4h8.4V49h-8.4V30.6L419.4 49H411V19.2h8.4zm47.5 19.6c-2.1.4-4.6.7-7 .7-2.3 0-5.7-.3-8.3-2.8-2.4-2.3-2.7-4.8-2.7-7V19.2h8.4V28c0 1 0 2.3 1 3.2 1.2 1.1 3.2 1.1 4.3 1.1 1.5 0 2.8-.1 4.3-.4V19.2h8.4V49h-8.4V38.8zM484 19.2h8.4v10.5h11.7V19.2h8.4V49h-8.4V36.9h-11.7V49H484V19.2zm60.1 0h8.4V49h-8.4v-3.9c-3 4.3-7 4.8-9.2 4.8-9.2 0-15.2-7.2-15.2-15.9 0-8.8 6-15.9 14.8-15.9 2.3 0 6.8.4 9.6 4.8v-3.7zm-15.7 14.9c0 4.8 3.4 8.5 8.3 8.5 4.8 0 8.3-3.7 8.3-8.5s-3.4-8.4-8.3-8.4c-4.9-.1-8.3 3.6-8.3 8.4zm-282.8 53c-1.8-1.7-4-2.6-6.9-2.6-5.6 0-8.4 4.1-8.4 8.4 0 4.9 3.7 8.5 8.7 8.5 1.9 0 4.3-.6 6.6-2.6v8.2c-1.7.8-4.3 1.9-7.7 1.9-4.7 0-8.8-1.8-11.5-4.3-2.3-2.1-4.8-5.9-4.8-11.4 0-5.2 2.1-9.4 5.2-12.1 3.7-3.2 7.9-3.9 10.8-3.9 3.1 0 5.7.6 8.1 1.8v8.1zm34.4-5.9c3 2.7 5 6.8 5 11.7 0 4.8-2.1 9-5 11.7-2.6 2.3-6.4 4.2-12.1 4.2-5.7 0-9.5-1.9-12.1-4.2-3-2.7-5-6.8-5-11.7 0-4.9 2.1-9 5-11.7 2.6-2.3 6.4-4.2 12.1-4.2 5.7 0 9.5 1.9 12.1 4.2zM276.3 93c0-4.7-3.6-8.5-8.4-8.5s-8.4 3.8-8.4 8.5c0 4.6 3.5 8.4 8.4 8.4s8.4-3.9 8.4-8.4zm29.1-7.8v22.7H297V85.2h-8.3V78h25v7.2h-8.3zm13.5-7.2h8.4v10.5H339V78h8.4v29.9H339V95.7h-11.7v12.1h-8.4V78zm43.3 18.7c-.5-.1-3-.5-4.8-2.3-1.2-1.2-2.3-3.2-2.3-6.3 0-3.7 1.9-6.1 3.6-7.5 3-2.3 6.4-2.5 9.2-2.5h11.9V108h-8.4V97.4h-1l-7.3 10.5h-9.7l8.8-11.2zm9.1-12.1h-3.7c-1 0-1.9 0-2.8.8-.8.8-1.1 1.7-1.1 2.6 0 1 .2 1.8 1.1 2.5.9.7 1.9.8 2.8.8h3.7v-6.7z" fill="#403F41"/><path fill="#8CB5E2" d="M80.1 19c20.1 0 36.5 16.4 36.5 36.5S100.2 92 80.1 92 43.7 75.5 43.7 55.4 60 19 80.1 19m0-17C50.6 2 26.7 25.9 26.7 55.4s23.9 53.4 53.4 53.4 53.4-23.9 53.4-53.4C133.6 25.9 109.6 2 80.1 2zM2.4 2h17v106.8h-17z"/><path fill="#F1CC51" d="M133.6 2v16.7c20.3 0 36.7 16.5 36.7 36.7 0 20.3-16.5 36.7-36.7 36.7v16.7c29.5 0 53.4-23.9 53.4-53.4S163 2 133.6 2z"/></svg>